<svg xmlns="http://www.w3.org/2000/svg" xmlns:xlink="http://www.w3.org/1999/xlink" id="Layer_1" x="0" y="0" version="1.1" viewBox="0 0 54.3 54" xml:space="preserve" style="enable-background:new 0 0 54.3 54"><style type="text/css">.st0{fill:#fff}.st1{fill:#ef4153}</style><path d="M20.1,13.8v5H13v20.9H7.7V18.8H0.6v-5H20.1z" class="st0"/><path d="M46.2,39.7h-6.6l-7.4-11.1l-3.9,4.3v6.8H23V13.8h5.3v12.3l10.5-12.3h6.9l-9.8,10.7L46.2,39.7z" class="st0"/><path d="M52.8,39c-0.7,0.6-1.5,1-2.5,1c-1,0-1.9-0.3-2.5-1c-0.7-0.6-1-1.5-1-2.5c0-1,0.3-1.8,1-2.5c0.7-0.7,1.5-1,2.5-1	c1,0,1.8,0.3,2.5,1c0.7,0.7,1,1.5,1,2.5C53.7,37.5,53.4,38.3,52.8,39z" class="st1"/></svg>